<svg width="16" height="16" viewBox="0 0 16 16" fill="none" xmlns="http://www.w3.org/2000/svg">
<path d="M7.10204 9.88719V9.82409C7.10884 9.15456 7.17687 8.62173 7.30612 8.22562C7.43537 7.82951 7.61905 7.50876 7.85714 7.26338C8.09524 7.01801 8.38095 6.79191 8.71429 6.58509C8.91497 6.45889 9.09524 6.30991 9.2551 6.13815C9.41497 5.96287 9.54082 5.76131 9.63265 5.53346C9.72789 5.30561 9.77551 5.05322 9.77551 4.77629C9.77551 4.43276 9.69728 4.1348 9.54082 3.88241C9.38435 3.63002 9.17517 3.43547 8.91327 3.29876C8.65136 3.16205 8.36054 3.09369 8.04082 3.09369C7.7619 3.09369 7.4932 3.15328 7.23469 3.27247C6.97619 3.39165 6.7602 3.57919 6.58673 3.83509C6.41327 4.09098 6.31293 4.42575 6.28571 4.83939H5C5.02721 4.24347 5.17687 3.73343 5.44898 3.30927C5.72449 2.88512 6.08673 2.56087 6.53571 2.33652C6.9881 2.11217 7.4898 2 8.04082 2C8.63946 2 9.15986 2.12269 9.60204 2.36807C10.0476 2.61345 10.3912 2.94997 10.6327 3.37763C10.8776 3.80529 11 4.29254 11 4.83939C11 5.22498 10.9422 5.57377 10.8265 5.88576C10.7143 6.19774 10.551 6.47642 10.3367 6.7218C10.1259 6.96718 9.87075 7.18451 9.57143 7.37381C9.27211 7.5666 9.03231 7.76992 8.85204 7.98375C8.67177 8.19407 8.54082 8.44471 8.45918 8.73566C8.37755 9.02661 8.33333 9.38942 8.32653 9.82409V9.88719H7.10204ZM7.7551 13C7.5034 13 7.28742 12.9071 7.10714 12.7213C6.92687 12.5355 6.83673 12.3129 6.83673 12.0535C6.83673 11.7941 6.92687 11.5715 7.10714 11.3858C7.28742 11.2 7.5034 11.1071 7.7551 11.1071C8.0068 11.1071 8.22279 11.2 8.40306 11.3858C8.58333 11.5715 8.67347 11.7941 8.67347 12.0535C8.67347 12.2253 8.63095 12.383 8.54592 12.5268C8.46429 12.6705 8.35374 12.7862 8.21429 12.8738C8.07823 12.9579 7.92517 13 7.7551 13Z" fill="white"/>
</svg>
